# ProBuilder 5.2.4
# https://unity3d.com/unity/features/worldbuilding/probuilder
# 19/10/2025 16:59:00

mtllib ./PolyShape.mtl
o PolyShape

g PolyShape
v -1.40607E-08 1.864025 3.117521E-16
v 1.713806 1.864025 1.774323
v 3.937225 1.864025 5.002838
v 5.638588 1.864025 8.272705
v 7.527039 1.864025 12.17108
v 9.043419 1.864025 16.22141
v 9.599907 1.864025 21.16925
v 9.244957 1.864025 26.11246
v 7.953262 1.864025 30.88663
v 6.038154 1.864025 35.11551
v 3.131492 1.864025 38.09549
v -0.4420856 1.864025 38.71988
v -5.203309 1.864025 36.2782
v -8.54554 1.864025 32.19711
v -11.61889 1.864025 26.06387
v -12.77773 1.864025 20.09528
v -13.07305 1.864025 13.8168
v -12.36806 1.864025 8.591827
v -10.83622 1.864025 3.751373
v -9.069267 1.864025 0.9343566
v -6.668236 1.864025 -0.743805
v -3.365623 1.864025 -0.9634094
v -1.111176 1.864025 -0.378418
v 6.038154 4.554694E-08 35.11551
v 3.131492 2.362144E-08 38.09549
v -0.4420856 -3.334734E-09 38.71988
v -5.203309 -3.924954E-08 36.2782
v 7.953262 5.999296E-08 30.88663
v -8.54554 -6.446062E-08 32.19711
v -11.61889 -8.764348E-08 26.06387
v 9.244957 6.973646E-08 26.11246
v -12.77773 -9.638486E-08 20.09528
v -12.36806 -9.329465E-08 8.591827
v -10.83622 -8.173966E-08 3.751373
v -13.07305 -9.86125E-08 13.8168
v -6.668236 -5.029976E-08 -0.743805
v -3.365623 -2.538753E-08 -0.9634094
v -9.069267 -6.84112E-08 0.9343566
v -1.111176 -8.381807E-09 -0.378418
v 0 0 0
v 1.713806 1.292756E-08 1.774323
v 3.937225 2.969924E-08 5.002838
v 5.638588 4.253294E-08 8.272705
v 7.527039 5.677787E-08 12.17108
v 9.599907 7.241391E-08 21.16925
v 9.043419 6.821622E-08 16.22141

vt -3.233259E-09 5.835531E-11
vt -1.713806 1.774323
vt -3.937225 5.002838
vt -5.638588 8.272705
vt -7.527039 12.17108
vt -9.043419 16.22141
vt -9.599907 21.16925
vt -9.244957 26.11246
vt -7.953262 30.88663
vt -6.038154 35.11551
vt -3.131492 38.09549
vt 0.4420855 38.71988
vt 5.203309 36.2782
vt 8.54554 32.19711
vt 11.61889 26.06387
vt 12.77773 20.09528
vt 13.07305 13.8168
vt 12.36806 8.591827
vt 10.83622 3.751373
vt 9.069267 0.9343566
vt 6.668236 -0.743805
vt 3.365623 -0.9634094
vt 1.111176 -0.378418
vt 6.038154 35.11551
vt 3.131492 38.09549
vt -0.4420856 38.71988
vt -5.203309 36.2782
vt 7.953262 30.88663
vt -8.54554 32.19711
vt -11.61889 26.06387
vt 9.244957 26.11246
vt -12.77773 20.09528
vt -12.36806 8.591827
vt -10.83622 3.751373
vt -13.07305 13.8168
vt -6.668236 -0.743805
vt -3.365623 -0.9634094
vt -9.069267 0.9343566
vt -1.111176 -0.378418
vt 1.713806 1.774323
vt 3.937225 5.002838
vt 5.638588 8.272705
vt 7.527039 12.17108
vt 9.599907 21.16925
vt 9.043419 16.22141
vt -20.92162 4.554694E-08
vt -25.08442 2.362144E-08
vt -20.92162 1.864025
vt -25.08442 1.864025
vt -3.472101 2.362144E-08
vt -7.099817 -3.334734E-09
vt -3.472101 1.864025
vt -7.099817 1.864025
vt 17.27531 -3.334734E-09
vt 11.92451 -3.924954E-08
vt 17.27531 1.864025
vt 11.92451 1.864025
vt -24.85496 5.999296E-08
vt -29.49728 4.554694E-08
vt -24.85496 1.864025
vt -29.49728 1.864025
vt 24.77032 -3.924954E-08
vt 19.4953 -6.446062E-08
vt 24.77032 1.864025
vt 19.4953 1.864025
vt 24.95694 -6.446062E-08
vt 18.09676 -8.764348E-08
vt 24.95694 1.864025
vt 18.09676 1.864025
vt -22.79168 6.973646E-08
vt -27.73751 5.999296E-08
vt -22.79168 1.864025
vt -27.73751 1.864025
vt 23.37154 -8.764348E-08
vt 17.29149 -9.638486E-08
vt 23.37154 1.864025
vt 17.29149 1.864025
vt 11.9231 -9.329465E-08
vt 6.84604 -8.173966E-08
vt 11.9231 1.864025
vt 6.84604 1.864025
vt 15.44079 -9.86125E-08
vt 10.16846 -9.329465E-08
vt 15.44079 1.864025
vt 10.16846 1.864025
vt 19.47272 -9.638486E-08
vt 13.18731 -9.86125E-08
vt 19.47272 1.864025
vt 13.18731 1.864025
vt 6.604193 -5.029976E-08
vt 3.294288 -2.538753E-08
vt 6.604193 1.864025
vt 3.294288 1.864025
vt 7.968826 -6.84112E-08
vt 5.039461 -5.029976E-08
vt 7.968826 1.864025
vt 5.039461 1.864025
vt 8.935932 -8.173966E-08
vt 5.610619 -6.84112E-08
vt 8.935932 1.864025
vt 5.610619 1.864025
vt 3.499711 -2.538753E-08
vt 1.170601 -8.381807E-09
vt 3.499711 1.864025
vt 1.170601 1.864025
vt 1.173845 -8.381807E-09
vt 1.173845 1.864025
vt 1.331003E-08 1.864025
vt -2.466851 1.292756E-08
vt -2.466851 1.864025
vt -2.433362 1.292756E-08
vt -6.353427 2.969924E-08
vt -2.433362 1.864025
vt -6.353427 1.864025
vt -6.255346 2.969924E-08
vt -9.941356 4.253294E-08
vt -6.255346 1.864025
vt -9.941356 1.864025
vt -9.903355 4.253294E-08
vt -14.23505 5.677787E-08
vt -9.903355 1.864025
vt -14.23505 1.864025
vt -14.03756 5.677787E-08
vt -18.36243 6.821622E-08
vt -14.03756 1.864025
vt -18.36243 1.864025
vt -17.13052 6.821622E-08
vt -22.10956 7.241391E-08
vt -17.13052 1.864025
vt -22.10956 1.864025
vt -20.42733 7.241391E-08
vt -25.38326 6.973646E-08
vt -20.42733 1.864025
vt -25.38326 1.864025

vn 0 1 0
vn 7.543189E-09 -1 -3.625161E-16
vn 0.7158583 0 0.6982455
vn 0.1721165 0 0.9850766
vn -0.4563208 0 0.8898153
vn 0.9109427 0 0.4125331
vn -0.7736634 0 0.6335967
vn -0.8940345 0 0.4479981
vn 0.9652932 0 0.2611687
vn -0.9816682 0 0.1905976
vn -0.9533969 0 -0.3017189
vn -0.9910199 0 -0.1337146
vn -0.9988956 0 0.04698475
vn -0.06634764 0 -0.9977966
vn -0.5728756 0 -0.8196424
vn -0.8471434 0 -0.5313643
vn 0.2511653 0 -0.9679443
vn 0.3223749 0 -0.9466121
vn 0.7192663 5.425563E-09 -0.6947345
vn 0.8235874 0 -0.5671895
vn 0.8871022 0 -0.4615731
vn 0.8999655 0 -0.4359611
vn 0.9365184 0 -0.3506185
vn 0.9937345 0 -0.1117661
vn 0.9974319 0 0.0716212

usemtl ProBuilderDefault
f 12/12/1 11/11/1 10/10/1
f 13/13/1 12/12/1 10/10/1
f 13/13/1 10/10/1 9/9/1
f 14/14/1 13/13/1 9/9/1
f 14/14/1 9/9/1 15/15/1
f 15/15/1 9/9/1 8/8/1
f 8/8/1 16/16/1 15/15/1
f 17/17/1 19/19/1 18/18/1
f 17/17/1 16/16/1 19/19/1
f 20/20/1 22/22/1 21/21/1
f 20/20/1 19/19/1 22/22/1
f 22/22/1 19/19/1 23/23/1
f 2/2/1 1/1/1 23/23/1
f 23/23/1 19/19/1 2/2/1
f 3/3/1 2/2/1 19/19/1
f 3/3/1 19/19/1 4/4/1
f 19/19/1 16/16/1 4/4/1
f 16/16/1 5/5/1 4/4/1
f 16/16/1 8/8/1 5/5/1
f 6/6/1 5/5/1 7/7/1
f 5/5/1 8/8/1 7/7/1
f 45/44/2 31/31/2 44/43/2
f 45/44/2 44/43/2 46/45/2
f 44/43/2 31/31/2 32/32/2
f 43/42/2 44/43/2 32/32/2
f 43/42/2 32/32/2 34/34/2
f 43/42/2 34/34/2 42/41/2
f 34/34/2 41/40/2 42/41/2
f 41/40/2 34/34/2 39/39/2
f 39/39/2 40/1/2 41/40/2
f 39/39/2 34/34/2 37/37/2
f 37/37/2 34/34/2 38/38/2
f 36/36/2 37/37/2 38/38/2
f 34/34/2 32/32/2 35/35/2
f 33/33/2 34/34/2 35/35/2
f 30/30/2 32/32/2 31/31/2
f 31/31/2 28/28/2 30/30/2
f 30/30/2 28/28/2 29/29/2
f 28/28/2 27/27/2 29/29/2
f 28/28/2 24/24/2 27/27/2
f 24/24/2 26/26/2 27/27/2
f 24/24/2 25/25/2 26/26/2
f 11/49/3 25/47/3 24/46/3
f 24/46/3 10/48/3 11/49/3
f 12/53/4 26/51/4 25/50/4
f 25/50/4 11/52/4 12/53/4
f 13/57/5 27/55/5 26/54/5
f 26/54/5 12/56/5 13/57/5
f 10/61/6 24/59/6 28/58/6
f 28/58/6 9/60/6 10/61/6
f 14/65/7 29/63/7 27/62/7
f 27/62/7 13/64/7 14/65/7
f 15/69/8 30/67/8 29/66/8
f 29/66/8 14/68/8 15/69/8
f 9/73/9 28/71/9 31/70/9
f 31/70/9 8/72/9 9/73/9
f 16/77/10 32/75/10 30/74/10
f 30/74/10 15/76/10 16/77/10
f 19/81/11 34/79/11 33/78/11
f 33/78/11 18/80/11 19/81/11
f 18/85/12 33/83/12 35/82/12
f 35/82/12 17/84/12 18/85/12
f 17/89/13 35/87/13 32/86/13
f 32/86/13 16/88/13 17/89/13
f 22/93/14 37/91/14 36/90/14
f 36/90/14 21/92/14 22/93/14
f 21/97/15 36/95/15 38/94/15
f 38/94/15 20/96/15 21/97/15
f 20/101/16 38/99/16 34/98/16
f 34/98/16 19/100/16 20/101/16
f 23/105/17 39/103/17 37/102/17
f 37/102/17 22/104/17 23/105/17
f 1/108/18 40/1/18 39/106/18
f 39/106/18 23/107/18 1/108/18
f 2/110/19 41/109/19 40/1/19
f 40/1/19 1/108/19 2/110/19
f 3/114/20 42/112/20 41/111/20
f 41/111/20 2/113/20 3/114/20
f 4/118/21 43/116/21 42/115/21
f 42/115/21 3/117/21 4/118/21
f 5/122/22 44/120/22 43/119/22
f 43/119/22 4/121/22 5/122/22
f 6/126/23 46/124/23 44/123/23
f 44/123/23 5/125/23 6/126/23
f 7/130/24 45/128/24 46/127/24
f 46/127/24 6/129/24 7/130/24
f 8/134/25 31/132/25 45/131/25
f 45/131/25 7/133/25 8/134/25

