# ProBuilder 5.2.4
# https://unity3d.com/unity/features/worldbuilding/probuilder
# 19/10/2025 17:26:46

mtllib ./PolyShapeAGNE.mtl
o PolyShapeAGNE

g PolyShape
v -0.05075055 4.446312 -0.01495339
v -2.060006 4.446312 6.322662
v -10.7449 4.446313 7.569823
v -11.3583 4.446312 3.794768
v -8.686745 4.446313 0.05285558
v -6.725486 4.446314 -3.858338
v -11.3583 -2.072753E-06 3.794768
v -2.060006 -1.325819E-06 6.322662
v -10.7449 -7.244417E-07 7.569823
v -8.686745 -1.104861E-06 0.05285535
v -6.725486 -1.980435E-07 -3.858338
v -0.05075073 -1.911231E-06 -0.01495362

vt 0.05075078 -0.01495377
vt 2.060006 6.322661
vt 10.7449 7.569822
vt 11.3583 3.794768
vt 8.686745 0.0528552
vt 6.725486 -3.858339
vt -11.3583 3.794768
vt -2.060006 6.322662
vt -10.7449 7.569823
vt -8.686745 0.05285535
vt -6.725486 -3.858338
vt -0.05075073 -0.01495362
vt -2.937812 -1.280349E-06
vt -11.71179 -6.789719E-07
vt -2.937811 4.446312
vt -11.71179 4.446313
vt 5.748507 -7.244417E-07
vt 1.923941 -2.072753E-06
vt 5.748507 4.446313
vt 1.923941 4.446312
vt 9.688264 -2.292072E-06
vt 5.090534 -1.32418E-06
vt 9.688264 4.446312
vt 5.090534 4.446313
vt 3.941068 -1.285118E-06
vt -0.4343143 -3.783012E-07
vt 3.941068 4.446313
vt -0.4343141 4.446314
vt 7.753631 -1.974689E-07
vt 0.05144255 -1.910656E-06
vt 7.753631 4.446314
vt 0.05144228 4.446312
vt -0.001083083 -1.914124E-06
vt -6.649577 -1.328712E-06
vt -0.001083247 4.446312
vt -6.649577 4.446312

vn 1.114512E-07 1 1.300302E-07
vn 5.430895E-08 -1 9.571339E-08
vn 0.1421431 -7.621945E-09 0.9898461
vn -0.9870545 0 0.1603851
vn -0.813861 3.115737E-08 -0.5810597
vn -0.893909 2.328469E-08 -0.4482485
vn 0.4989991 4.646864E-08 -0.8666025
vn 0.9532407 -5.470649E-08 0.3022121

usemtl ProBuilderDefault
f 3/3/1 2/2/1 4/4/1
f 2/2/1 5/5/1 4/4/1
f 1/1/1 6/6/1 5/5/1
f 2/2/1 1/1/1 5/5/1
f 10/10/2 12/12/2 8/8/2
f 10/10/2 11/11/2 12/12/2
f 7/7/2 10/10/2 8/8/2
f 7/7/2 8/8/2 9/9/2
f 3/16/3 9/14/3 8/13/3
f 8/13/3 2/15/3 3/16/3
f 4/20/4 7/18/4 9/17/4
f 9/17/4 3/19/4 4/20/4
f 5/24/5 10/22/5 7/21/5
f 7/21/5 4/23/5 5/24/5
f 6/28/6 11/26/6 10/25/6
f 10/25/6 5/27/6 6/28/6
f 1/32/7 12/30/7 11/29/7
f 11/29/7 6/31/7 1/32/7
f 2/36/8 8/34/8 12/33/8
f 12/33/8 1/35/8 2/36/8

